<svg width="17" height="16" viewBox="0 0 17 16" fill="none" xmlns="http://www.w3.org/2000/svg">
<path d="M8.5 16C12.9183 16 16.5 12.4183 16.5 8C16.5 3.58172 12.9183 0 8.5 0C4.08172 0 0.5 3.58172 0.5 8C0.5 12.4183 4.08172 16 8.5 16Z" fill="#1977F3"/>
<path d="M11.614 10.3131L11.9684 8.00009H9.74983V6.49932C9.74983 5.86706 10.0592 5.24943 11.0537 5.24943H12.0629V3.28064C12.0629 3.28064 11.1471 3.12427 10.2718 3.12427C8.44481 3.12427 7.25004 4.23128 7.25004 6.23719V8.00009H5.21826V10.3131H7.25004V15.9033C7.6573 15.9675 8.07468 16.0001 8.49994 16.0001C8.92519 16.0001 9.34258 15.9663 9.74983 15.9033V10.3131H11.614Z" fill="white"/>
</svg>
