<?xml version="1.0" encoding="utf-8"?>
<svg viewBox="0 0 1000 1000" style="enable-background:new 0 0 1000 1000;" xmlns="http://www.w3.org/2000/svg">
  <g/>
  <ellipse style="stroke: rgb(0, 0, 0); fill: #23C2CC;" cx="502.53" cy="499.861" rx="501.62" ry="492.92"/>
  <path style="fill: rgb(255, 255, 255);" d="M 109.895 757.215 C 174.854 785.026 239.573 813.325 304.444 841.304 C 307.857 842.773 312.031 843.303 315.858 843.313 C 365.151 843.441 414.447 843.228 463.743 843.565 C 471.989 843.622 473.966 841.125 473.908 833.922 C 473.57 794.152 473.755 754.377 473.716 714.601 C 473.716 712.485 473.317 710.372 472.991 707.1 C 469.126 708.733 466.224 710.038 463.252 711.205 C 417.834 729.106 371.753 744.207 321 738.234 C 301.268 735.91 283.438 729.477 268.873 716.591 C 243.44 694.094 235.622 664.816 235.033 634.213 C 234.534 608.684 237.08 582.955 240.397 557.551 C 244.318 527.586 252.587 498.414 266.455 470.827 C 304.25 395.654 358.479 331.406 423.31 274.761 C 444.732 256.043 470.064 241.114 493.582 224.416 C 499.395 220.287 504.985 220.216 510.959 224.296 C 529.72 237.092 549.619 248.654 567.219 262.673 C 612.934 299.105 651.829 341.378 686.158 387.082 C 720.526 432.846 749.617 481.015 760.676 536.714 C 768.761 577.41 775.359 618.214 766.842 659.55 C 755.382 715.138 719.934 738.47 665.262 739.848 C 638.413 740.526 612.255 735.131 586.918 727.168 C 568.654 721.427 550.775 714.658 531.688 707.986 C 531.559 710.394 531.405 712.041 531.405 713.693 C 531.391 753.469 531.706 793.243 531.151 833.015 C 531.026 841.941 534.285 843.643 543.143 843.583 C 590.916 843.216 638.686 843.548 686.464 843.236 C 692.591 843.196 699.179 841.781 704.741 839.39 C 767.46 812.461 830.019 785.205 892.63 758.056 C 905.346 752.542 905.307 752.6 901.857 740.171 C 866.941 614.405 832.08 488.627 796.988 362.896 C 795.783 358.574 793.196 353.943 789.756 350.887 C 775.556 338.258 760.804 326.151 746.198 313.91 C 718.558 290.747 690.915 267.592 663.212 244.495 C 626.269 213.707 589.257 182.995 552.306 152.228 C 537.652 140.032 522.996 127.841 508.519 115.47 C 503.699 111.352 500.165 111.564 495.576 116.036 C 489.536 121.909 482.615 127.018 476.103 132.48 C 447.143 156.798 418.238 181.172 389.213 205.429 C 358.394 231.188 327.502 256.865 296.585 282.53 C 274.023 301.256 251.135 319.661 228.872 338.69 C 219.975 346.296 209.913 352.778 206.499 365.234 C 172.085 490.825 137.222 616.323 102.155 741.767 C 99.899 749.839 101.533 753.632 109.895 757.215 Z"/>
</svg>
