<svg width="300" height="300" viewBox="0 0 300 300" fill="none" xmlns="http://www.w3.org/2000/svg">
<g clip-path="url(#clip0_916_8294)">
<path d="M149.5 300C66.7 300 -0.5 232.8 -0.5 150C-0.5 67.2 66.7 0 149.5 0C232.3 0 299.5 67.2 299.5 150C299.5 232.8 232.3 300 149.5 300Z" fill="#5C7095"/>
<path d="M162.1 197.3C189.162 197.3 211.1 175.362 211.1 148.3C211.1 121.238 189.162 99.3003 162.1 99.3003C135.038 99.3003 113.1 121.238 113.1 148.3C113.1 175.362 135.038 197.3 162.1 197.3Z" stroke="white" stroke-width="20" stroke-miterlimit="10"/>
<path d="M221.5 212.9C186.8 245.8 131.9 244.4 98.8999 209.6C65.8999 174.8 67.4999 120 102.2 87.1001C136.9 54.2001 191.8 55.6001 224.8 90.4001" stroke="white" stroke-width="22" stroke-miterlimit="10"/>
</g>
<defs>
<clipPath id="clip0_916_8294">
<rect width="300" height="300" fill="white"/>
</clipPath>
</defs>
</svg>
