<?xml version="1.0" encoding="utf-8"?>
<!-- Generator: Adobe Illustrator 27.0.0, SVG Export Plug-In . SVG Version: 6.00 Build 0)  -->
<svg version="1.1" id="Layer_1" xmlns="http://www.w3.org/2000/svg" xmlns:xlink="http://www.w3.org/1999/xlink" x="0px" y="0px"
	 viewBox="0 0 300 300" style="enable-background:new 0 0 300 300;" xml:space="preserve">
<style type="text/css">
	.st0{fill:#2366CC;}
	.st1{fill:none;stroke:#2366CC;stroke-width:25;stroke-miterlimit:10;}
	.st2{fill:#2366CC;stroke:#2366CC;stroke-width:15;stroke-linecap:round;stroke-miterlimit:10;}
	.st3{stroke:#2366CC;stroke-width:20;stroke-linecap:round;stroke-miterlimit:10;}
	.st4{fill:none;stroke:#FFFFFF;stroke-width:20;stroke-miterlimit:10;}
	.st5{fill:none;stroke:#FFFFFF;stroke-width:22;stroke-miterlimit:10;}
</style>
<path class="st0" d="M149.5,300L149.5,300c-82.8,0-150-67.2-150-150l0,0c0-82.8,67.2-150,150-150l0,0c82.8,0,150,67.2,150,150l0,0
	C299.5,232.8,232.3,300,149.5,300z"/>
<circle class="st1" cx="-1800" cy="180.5" r="78"/>
<path class="st1" d="M-1705.5,283.2c-55.3,52.4-142.6,50.1-195-5.2s-50.1-142.6,5.2-195c55.3-52.4,142.6-50.1,195,5.2"/>
<g>
	<path class="st2" d="M-1646.2,316.2h-11.2V158.7h11.2v31.9c11.9-23.8,32.2-35.7,60.9-35.7c19.6,0,36.1,6.8,49.3,20.3
		c13.3,13.5,19.9,30,19.9,49.4v91.7h-11.2v-91.7c0-16.1-5.7-30.1-17-42s-25-17.9-41.1-17.9s-30.3,5.9-42.5,17.9
		c-12.2,11.9-18.4,25.9-18.4,42V316.2z"/>
	<path class="st2" d="M-1417.6,308.5v9.8c-16.6,0-30.7-5.5-42.3-16.6c-11.7-11.1-17.5-25.2-17.5-42.5V95.3h11.2V159h48.3v9.8h-48.3
		v90.3c0,14.2,4.7,26,14.2,35.4C-1442.7,303.8-1431.2,308.5-1417.6,308.5z"/>
	<path class="st2" d="M-1374.2,295c-16.1-16.7-24.2-36.1-24.2-58.3c0-22.2,8.2-41.4,24.5-57.6c16.3-16.2,36-24.3,59-24.3
		s42.6,8.1,58.8,24.3c16.2,16.2,24.3,35.5,24.3,57.8c0,22.3-7.9,41.7-23.8,58.3s-35.1,24.9-57.8,24.9h-3.2
		C-1338.9,320-1358.1,311.7-1374.2,295z M-1243,237.6c0-19.7-7.1-36.8-21.2-51.3c-14.1-14.5-31-21.7-50.6-21.7s-36.6,7.3-50.9,21.9
		c-14.3,14.6-21.5,31.7-21.5,51.3s7.2,36.6,21.5,50.9s31.4,21.5,51.1,21.5c19.7,0,36.6-7.2,50.6-21.5
		C-1250,274.4-1243,257.3-1243,237.6z"/>
	<path class="st2" d="M-1164.2,164.3c-6.1,0-11.4,2-16.1,5.9c-4.7,4-7,8.9-7,14.7s2.6,11.2,7.9,16.1s11.6,9.4,18.9,13.5
		s14.8,8.5,22.2,13.1c7.5,4.7,13.8,10.6,19.1,17.9c5.2,7.2,7.9,15.5,7.9,24.8c0,13.8-5.2,25.5-15.6,35.2
		c-10.4,9.7-22.9,14.5-37.6,14.5c-9.3,0-18-2-26.1-6.1c-8.1-4.1-13.9-9.5-17.7-16.3v-16.8c8.9,19.6,23.1,29.4,42.7,29.4
		c12.1,0,22.3-3.7,30.6-11.2c8.3-7.5,12.4-15.8,12.4-25c0-9.2-2.6-17-7.9-23.3s-11.6-11.7-19.1-16.1c-7.5-4.4-14.9-8.8-22.2-13.1
		c-7.3-4.3-13.7-9.6-18.9-15.8s-7.9-13.4-7.9-21.7s3.3-15.3,10-21c6.7-5.7,15.2-8.6,25.7-8.6s19.5,4.1,26.9,12.2v14.4
		C-1143.4,169.9-1152.8,164.3-1164.2,164.3z"/>
	<path class="st2" d="M-1062.7,295c-16.1-16.7-24.2-36.1-24.2-58.3c0-22.2,8.2-41.4,24.5-57.6c16.3-16.2,36-24.3,59-24.3
		s42.6,8.1,58.8,24.3c16.2,16.2,24.3,35.5,24.3,57.8c0,22.3-7.9,41.7-23.8,58.3s-35.1,24.9-57.8,24.9h-3.2
		C-1027.4,320-1046.6,311.7-1062.7,295z M-931.5,237.6c0-19.7-7.1-36.8-21.2-51.3c-14.1-14.5-31-21.7-50.6-21.7
		c-19.6,0-36.6,7.3-50.9,21.9c-14.3,14.6-21.5,31.7-21.5,51.3s7.2,36.6,21.5,50.9s31.4,21.5,51.1,21.5c19.7,0,36.6-7.2,50.6-21.5
		C-938.5,274.4-931.5,257.3-931.5,237.6z"/>
</g>
<path class="st3" d="M-1657.4,193.7"/>
<g>
	<circle class="st4" cx="162.1" cy="148.3" r="49"/>
	<path class="st5" d="M221.5,212.9c-34.7,32.9-89.6,31.5-122.6-3.3S67.5,120,102.2,87.1s89.6-31.5,122.6,3.3"/>
</g>
</svg>
