<svg xmlns="http://www.w3.org/2000/svg" version="1.1" xmlns:xlink="http://www.w3.org/1999/xlink" xmlns:svgjs="http://svgjs.dev/svgjs" width="1000" height="75" viewBox="0 0 1000 75"><g transform="matrix(1,0,0,1,-0.6060520600860855,-0.01990587494375262)"><svg viewBox="0 0 396 30" data-background-color="#ffffff" preserveAspectRatio="xMidYMid meet" height="75" width="1000" xmlns="http://www.w3.org/2000/svg" xmlns:xlink="http://www.w3.org/1999/xlink"><defs></defs><g id="tight-bounds" transform="matrix(1,0,0,1,0.23999661579409803,0.008031547912054293)"><svg viewBox="0 0 395.52 29.98400610211045" height="29.98400610211045" width="395.52"><g><svg viewBox="0 0 576.2634472911151 43.686" height="29.98400610211045" width="395.52"><g><svg viewBox="0 0 576.2634472911151 43.686" height="43.686" width="576.2634472911151"><g><svg viewBox="0 0 576.2634472911151 43.686" height="43.686" width="576.2634472911151"><g><svg viewBox="0 0 576.2634472911151 43.686" height="43.686" width="576.2634472911151"><g><svg><g></g><g></g></svg></g><g><svg><g></g><g><svg></svg></g></svg></g><g id="text-0"><svg viewBox="0 0 576.2634472911151 43.686" height="43.686" width="576.2634472911151"><g transform="matrix(1,0,0,1,0,3.843)"><svg width="276.5" viewBox="0.44999998807907104 -35.5 276.47998046875 36" height="36" data-palette-color="#457b9d"><path d="M7.65 0L1.5 0Q1.1 0 0.78-0.33 0.45-0.65 0.45-1.05L0.45-1.05Q0.45-1.3 0.5-1.5L0.5-1.5 12.25-33.6Q12.4-34.15 12.88-34.58 13.35-35 14.2-35L14.2-35 21.6-35Q22.45-35 22.93-34.58 23.4-34.15 23.55-33.6L23.55-33.6 35.25-1.5Q35.35-1.3 35.35-1.05L35.35-1.05Q35.35-0.65 35.02-0.33 34.7 0 34.25 0L34.25 0 28.1 0Q27.35 0 26.98-0.38 26.6-0.75 26.5-1.05L26.5-1.05 24.55-6.15 11.2-6.15 9.3-1.05Q9.2-0.75 8.85-0.38 8.5 0 7.65 0L7.65 0ZM17.9-26.55L13.25-13.35 22.55-13.35 17.9-26.55ZM53.65 0.5L53.65 0.5Q48.95 0.5 45.55-1.05 42.15-2.6 40.27-5.6 38.4-8.6 38.2-13.05L38.2-13.05Q38.15-15.1 38.15-17.45 38.15-19.8 38.2-21.95L38.2-21.95Q38.4-26.3 40.3-29.35 42.2-32.4 45.6-33.95 49-35.5 53.65-35.5L53.65-35.5Q56.95-35.5 59.75-34.68 62.55-33.85 64.65-32.27 66.75-30.7 67.92-28.48 69.1-26.25 69.15-23.45L69.15-23.45Q69.2-23 68.87-22.7 68.55-22.4 68.1-22.4L68.1-22.4 61.35-22.4Q60.7-22.4 60.35-22.68 60-22.95 59.75-23.7L59.75-23.7Q59.05-26.35 57.47-27.33 55.9-28.3 53.6-28.3L53.6-28.3Q50.85-28.3 49.25-26.78 47.65-25.25 47.5-21.7L47.5-21.7Q47.35-17.6 47.5-13.3L47.5-13.3Q47.65-9.75 49.25-8.22 50.85-6.7 53.6-6.7L53.6-6.7Q55.9-6.7 57.5-7.7 59.1-8.7 59.75-11.3L59.75-11.3Q59.95-12.05 60.32-12.33 60.7-12.6 61.35-12.6L61.35-12.6 68.1-12.6Q68.55-12.6 68.87-12.3 69.2-12 69.15-11.55L69.15-11.55Q69.1-8.75 67.92-6.53 66.75-4.3 64.65-2.73 62.55-1.15 59.75-0.33 56.95 0.5 53.65 0.5ZM88.75 0.5L88.75 0.5Q84.05 0.5 80.65-1.05 77.25-2.6 75.37-5.6 73.5-8.6 73.3-13.05L73.3-13.05Q73.25-15.1 73.25-17.45 73.25-19.8 73.3-21.95L73.3-21.95Q73.5-26.3 75.4-29.35 77.3-32.4 80.7-33.95 84.1-35.5 88.75-35.5L88.75-35.5Q92.05-35.5 94.85-34.68 97.65-33.85 99.75-32.27 101.85-30.7 103.02-28.48 104.2-26.25 104.25-23.45L104.25-23.45Q104.3-23 103.97-22.7 103.65-22.4 103.2-22.4L103.2-22.4 96.45-22.4Q95.8-22.4 95.45-22.68 95.1-22.95 94.85-23.7L94.85-23.7Q94.15-26.35 92.57-27.33 91-28.3 88.7-28.3L88.7-28.3Q85.95-28.3 84.35-26.78 82.75-25.25 82.6-21.7L82.6-21.7Q82.45-17.6 82.6-13.3L82.6-13.3Q82.75-9.75 84.35-8.22 85.95-6.7 88.7-6.7L88.7-6.7Q91-6.7 92.6-7.7 94.2-8.7 94.85-11.3L94.85-11.3Q95.05-12.05 95.42-12.33 95.8-12.6 96.45-12.6L96.45-12.6 103.2-12.6Q103.65-12.6 103.97-12.3 104.3-12 104.25-11.55L104.25-11.55Q104.2-8.75 103.02-6.53 101.85-4.3 99.75-2.73 97.65-1.15 94.85-0.33 92.05 0.5 88.75 0.5ZM123.79 0.5L123.79 0.5Q119.19 0.5 115.79-1 112.39-2.5 110.49-5.53 108.59-8.55 108.39-13.1L108.39-13.1Q108.34-15.25 108.34-17.43 108.34-19.6 108.39-21.75L108.39-21.75Q108.59-26.25 110.52-29.33 112.44-32.4 115.87-33.95 119.29-35.5 123.79-35.5L123.79-35.5Q128.34-35.5 131.74-33.95 135.14-32.4 137.09-29.33 139.04-26.25 139.19-21.75L139.19-21.75Q139.29-19.6 139.29-17.43 139.29-15.25 139.19-13.1L139.19-13.1Q139.04-8.55 137.12-5.53 135.19-2.5 131.79-1 128.39 0.5 123.79 0.5ZM123.79-6.7L123.79-6.7Q126.44-6.7 128.12-8.3 129.79-9.9 129.89-13.4L129.89-13.4Q129.99-15.6 129.99-17.55 129.99-19.5 129.89-21.6L129.89-21.6Q129.79-23.95 129.02-25.43 128.24-26.9 126.89-27.6 125.54-28.3 123.79-28.3L123.79-28.3Q122.09-28.3 120.74-27.6 119.39-26.9 118.59-25.43 117.79-23.95 117.69-21.6L117.69-21.6Q117.64-19.5 117.64-17.55 117.64-15.6 117.69-13.4L117.69-13.4Q117.84-9.9 119.52-8.3 121.19-6.7 123.79-6.7ZM159.79 0.5L159.79 0.5Q155.24 0.5 151.87-0.98 148.49-2.45 146.64-5.53 144.79-8.6 144.79-13.35L144.79-13.35 144.79-33.75Q144.79-34.3 145.14-34.65 145.49-35 146.04-35L146.04-35 152.49-35Q153.04-35 153.41-34.65 153.79-34.3 153.79-33.75L153.79-33.75 153.79-13.4Q153.79-10.15 155.34-8.53 156.89-6.9 159.74-6.9L159.74-6.9Q162.54-6.9 164.12-8.53 165.69-10.15 165.69-13.4L165.69-13.4 165.69-33.75Q165.69-34.3 166.06-34.65 166.44-35 166.94-35L166.94-35 173.44-35Q173.94-35 174.31-34.65 174.69-34.3 174.69-33.75L174.69-33.75 174.69-13.35Q174.69-8.6 172.84-5.53 170.99-2.45 167.64-0.98 164.29 0.5 159.79 0.5ZM188.59 0L182.59 0Q182.04 0 181.69-0.38 181.34-0.75 181.34-1.25L181.34-1.25 181.34-33.75Q181.34-34.3 181.69-34.65 182.04-35 182.59-35L182.59-35 187.89-35Q188.74-35 189.11-34.63 189.49-34.25 189.59-34.05L189.59-34.05 201.79-14.85 201.79-33.75Q201.79-34.3 202.14-34.65 202.49-35 203.04-35L203.04-35 209.04-35Q209.59-35 209.94-34.65 210.29-34.3 210.29-33.75L210.29-33.75 210.29-1.3Q210.29-0.75 209.94-0.38 209.59 0 209.04 0L209.04 0 203.69 0Q202.89 0 202.51-0.4 202.14-0.8 202.04-0.95L202.04-0.95 189.84-19.45 189.84-1.25Q189.84-0.75 189.49-0.38 189.14 0 188.59 0L188.59 0ZM232.84 0L226.24 0Q225.69 0 225.34-0.38 224.99-0.75 224.99-1.25L224.99-1.25 224.99-27.15 216.09-27.15Q215.54-27.15 215.19-27.53 214.84-27.9 214.84-28.4L214.84-28.4 214.84-33.75Q214.84-34.3 215.19-34.65 215.54-35 216.09-35L216.09-35 242.99-35Q243.54-35 243.89-34.65 244.24-34.3 244.24-33.75L244.24-33.75 244.24-28.4Q244.24-27.9 243.89-27.53 243.54-27.15 242.99-27.15L242.99-27.15 234.09-27.15 234.09-1.25Q234.09-0.75 233.74-0.38 233.39 0 232.84 0L232.84 0ZM261.83 0.5L261.83 0.5Q256.83 0.5 253.53-0.93 250.23-2.35 248.53-4.65 246.83-6.95 246.73-9.55L246.73-9.55Q246.73-9.95 247.06-10.28 247.38-10.6 247.83-10.6L247.83-10.6 254.13-10.6Q254.83-10.6 255.21-10.35 255.58-10.1 255.88-9.7L255.88-9.7Q256.28-8.95 257.01-8.25 257.73-7.55 258.93-7.13 260.13-6.7 261.83-6.7L261.83-6.7Q264.73-6.7 266.21-7.6 267.68-8.5 267.68-10.05L267.68-10.05Q267.68-11.2 266.88-11.9 266.08-12.6 264.31-13.18 262.53-13.75 259.58-14.35L259.58-14.35Q255.78-15.15 253.11-16.43 250.43-17.7 249.03-19.78 247.63-21.85 247.63-24.95L247.63-24.95Q247.63-28 249.36-30.4 251.08-32.8 254.18-34.15 257.28-35.5 261.53-35.5L261.53-35.5Q264.98-35.5 267.61-34.6 270.23-33.7 272.03-32.2 273.83-30.7 274.76-29.03 275.68-27.35 275.73-25.75L275.73-25.75Q275.73-25.35 275.46-25.03 275.18-24.7 274.68-24.7L274.68-24.7 268.08-24.7Q267.53-24.7 267.13-24.9 266.73-25.1 266.43-25.55L266.43-25.55Q266.13-26.65 264.86-27.48 263.58-28.3 261.53-28.3L261.53-28.3Q259.33-28.3 258.11-27.53 256.88-26.75 256.88-25.15L256.88-25.15Q256.88-24.15 257.56-23.4 258.23-22.65 259.81-22.1 261.38-21.55 264.13-20.95L264.13-20.95Q268.68-20.1 271.48-18.82 274.28-17.55 275.61-15.53 276.93-13.5 276.93-10.45L276.93-10.45Q276.93-7.05 274.98-4.6 273.03-2.15 269.66-0.83 266.28 0.5 261.83 0.5Z" opacity="1" transform="matrix(1,0,0,1,0,0)" fill="#457b9d" class="undefined-s-0"></path></svg></g><g><svg xmlns="http://www.w3.org/2000/svg" xmlns:xlink="http://www.w3.org/1999/xlink" version="1.0" x="290.252" y="0" viewBox="9.091090202331543 4.881208419799805 84.260009765625 90.30992889404297" enable-background="new 0 0 100 100" xml:space="preserve" height="43.686" width="40.759447291115066" class="icon-x-0" data-fill-palette-color="accent" id="x-0"><path d="M66.268 58.43V92.081c0 1.506 1.35 3.11 2.852 3.11h13.698c1.505 0 2.451-1.602 2.452-3.11V36.538c-1.258 2.942-2.741 5.686-4.451 8.214C77.053 50.318 72.157 54.916 66.268 58.43z" fill="#457b9d" data-fill-palette-color="accent"></path><path d="M10.782 92.081c0 1.506 1.264 3.11 2.768 3.11h13.699c1.501 0 2.535-1.602 2.535-3.11V66.923c-8.38-0.093-15.351-1.198-19.002-1.909V92.081z" fill="#457b9d" data-fill-palette-color="accent"></path><path d="M38.905 66.594V92.081c0 1.506 0.925 3.11 2.432 3.11h13.694c1.508 0 2.876-1.604 2.876-3.11V62.447c-3.07 1.165-6.336 2.11-9.778 2.822C45.187 65.877 42.103 66.319 38.905 66.594z" fill="#457b9d" data-fill-palette-color="accent"></path><path d="M54.666 40.262c0.143-0.184 0.283-0.369 0.42-0.553-0.019 0-0.037-0.004-0.055-0.004H41.338c-1.508 0-2.433 1.572-2.433 3.076v8.968c0.552-0.221 1.097-0.447 1.63-0.684C46.353 48.471 51.107 44.837 54.666 40.262z" fill="#457b9d" data-fill-palette-color="accent"></path><path d="M85.134 21.104h0.103 8.114L74.818 4.881l-18.533 16.223h9.963c-0.134 2.969-1.133 12.907-8.341 22.034-4.053 5.132-10.07 10.007-19.002 13.243-5.765 2.089-12.746 3.495-21.196 3.846-1.367 0.057-2.772 0.087-4.217 0.087-0.184 0-0.37-0.002-0.555-0.003-1.253-0.007-2.532-0.033-3.846-0.084 0 0 1.029 0.257 2.848 0.603 3.531 0.67 10.04 1.672 17.79 1.766 0.391 0.005 0.785 0.007 1.181 0.008 2.563 0 5.248-0.103 7.995-0.352 6.248-0.565 12.817-1.884 19.002-4.457 2.896-1.205 5.706-2.685 8.361-4.491C75.373 47.108 82.636 37.07 85.134 21.104z" fill="#457b9d" data-fill-palette-color="accent"></path></svg></g><g transform="matrix(1,0,0,1,344.7634472911151,3.843)"><svg width="231.5" viewBox="2.3499999046325684 -35.5 231.489990234375 36" height="36" data-palette-color="#457b9d"><path d="M17.85 0.5L17.85 0.5Q13.15 0.5 9.75-1.05 6.35-2.6 4.48-5.6 2.6-8.6 2.4-13.05L2.4-13.05Q2.35-15.1 2.35-17.45 2.35-19.8 2.4-21.95L2.4-21.95Q2.6-26.3 4.5-29.35 6.4-32.4 9.8-33.95 13.2-35.5 17.85-35.5L17.85-35.5Q21.15-35.5 23.95-34.68 26.75-33.85 28.85-32.27 30.95-30.7 32.13-28.48 33.3-26.25 33.35-23.45L33.35-23.45Q33.4-23 33.08-22.7 32.75-22.4 32.3-22.4L32.3-22.4 25.55-22.4Q24.9-22.4 24.55-22.68 24.2-22.95 23.95-23.7L23.95-23.7Q23.25-26.35 21.68-27.33 20.1-28.3 17.8-28.3L17.8-28.3Q15.05-28.3 13.45-26.78 11.85-25.25 11.7-21.7L11.7-21.7Q11.55-17.6 11.7-13.3L11.7-13.3Q11.85-9.75 13.45-8.22 15.05-6.7 17.8-6.7L17.8-6.7Q20.1-6.7 21.7-7.7 23.3-8.7 23.95-11.3L23.95-11.3Q24.15-12.05 24.53-12.33 24.9-12.6 25.55-12.6L25.55-12.6 32.3-12.6Q32.75-12.6 33.08-12.3 33.4-12 33.35-11.55L33.35-11.55Q33.3-8.75 32.13-6.53 30.95-4.3 28.85-2.73 26.75-1.15 23.95-0.33 21.15 0.5 17.85 0.5ZM63.6 0L39.85 0Q39.3 0 38.95-0.38 38.6-0.75 38.6-1.25L38.6-1.25 38.6-33.75Q38.6-34.3 38.95-34.65 39.3-35 39.85-35L39.85-35 63.2-35Q63.75-35 64.1-34.65 64.45-34.3 64.45-33.75L64.45-33.75 64.45-29.05Q64.45-28.5 64.1-28.15 63.75-27.8 63.2-27.8L63.2-27.8 47.25-27.8 47.25-21.05 62.1-21.05Q62.65-21.05 63-20.68 63.35-20.3 63.35-19.75L63.35-19.75 63.35-15.4Q63.35-14.9 63-14.53 62.65-14.15 62.1-14.15L62.1-14.15 47.25-14.15 47.25-7.2 63.6-7.2Q64.15-7.2 64.5-6.85 64.85-6.5 64.85-5.95L64.85-5.95 64.85-1.25Q64.85-0.75 64.5-0.38 64.15 0 63.6 0L63.6 0ZM77.8 0L71.8 0Q71.25 0 70.9-0.38 70.55-0.75 70.55-1.25L70.55-1.25 70.55-33.75Q70.55-34.3 70.9-34.65 71.25-35 71.8-35L71.8-35 77.1-35Q77.95-35 78.32-34.63 78.7-34.25 78.8-34.05L78.8-34.05 91-14.85 91-33.75Q91-34.3 91.35-34.65 91.7-35 92.25-35L92.25-35 98.25-35Q98.8-35 99.15-34.65 99.5-34.3 99.5-33.75L99.5-33.75 99.5-1.3Q99.5-0.75 99.15-0.38 98.8 0 98.25 0L98.25 0 92.9 0Q92.1 0 91.72-0.4 91.35-0.8 91.25-0.95L91.25-0.95 79.05-19.45 79.05-1.25Q79.05-0.75 78.7-0.38 78.35 0 77.8 0L77.8 0ZM122.04 0L115.44 0Q114.89 0 114.54-0.38 114.19-0.75 114.19-1.25L114.19-1.25 114.19-27.15 105.29-27.15Q104.74-27.15 104.39-27.53 104.04-27.9 104.04-28.4L104.04-28.4 104.04-33.75Q104.04-34.3 104.39-34.65 104.74-35 105.29-35L105.29-35 132.19-35Q132.74-35 133.09-34.65 133.44-34.3 133.44-33.75L133.44-33.75 133.44-28.4Q133.44-27.9 133.09-27.53 132.74-27.15 132.19-27.15L132.19-27.15 123.29-27.15 123.29-1.25Q123.29-0.75 122.94-0.38 122.59 0 122.04 0L122.04 0ZM145.69 0L139.24 0Q138.69 0 138.34-0.38 137.99-0.75 137.99-1.25L137.99-1.25 137.99-33.75Q137.99-34.3 138.34-34.65 138.69-35 139.24-35L139.24-35 152.84-35Q159.34-35 163.04-32.02 166.74-29.05 166.74-23.6L166.74-23.6Q166.74-20.05 165.04-17.6 163.34-15.15 160.54-13.9L160.54-13.9 167.39-1.6Q167.54-1.3 167.54-1.05L167.54-1.05Q167.54-0.65 167.22-0.33 166.89 0 166.49 0L166.49 0 159.84 0Q158.89 0 158.44-0.48 157.99-0.95 157.79-1.35L157.79-1.35 152.09-12.35 146.99-12.35 146.99-1.25Q146.99-0.75 146.62-0.38 146.24 0 145.69 0L145.69 0ZM146.99-28.05L146.99-19.45 152.74-19.45Q155.09-19.45 156.27-20.6 157.44-21.75 157.44-23.7L157.44-23.7Q157.44-25.65 156.31-26.85 155.19-28.05 152.74-28.05L152.74-28.05 146.99-28.05ZM176.69 0L170.54 0Q170.14 0 169.81-0.33 169.49-0.65 169.49-1.05L169.49-1.05Q169.49-1.3 169.54-1.5L169.54-1.5 181.29-33.6Q181.44-34.15 181.91-34.58 182.39-35 183.24-35L183.24-35 190.64-35Q191.49-35 191.96-34.58 192.44-34.15 192.59-33.6L192.59-33.6 204.29-1.5Q204.39-1.3 204.39-1.05L204.39-1.05Q204.39-0.65 204.06-0.33 203.74 0 203.29 0L203.29 0 197.14 0Q196.39 0 196.01-0.38 195.64-0.75 195.54-1.05L195.54-1.05 193.59-6.15 180.24-6.15 178.34-1.05Q178.24-0.75 177.89-0.38 177.54 0 176.69 0L176.69 0ZM186.94-26.55L182.29-13.35 191.59-13.35 186.94-26.55ZM232.59 0L209.59 0Q209.04 0 208.69-0.38 208.34-0.75 208.34-1.25L208.34-1.25 208.34-33.75Q208.34-34.3 208.69-34.65 209.04-35 209.59-35L209.59-35 216.19-35Q216.74-35 217.09-34.65 217.44-34.3 217.44-33.75L217.44-33.75 217.44-7.55 232.59-7.55Q233.14-7.55 233.49-7.18 233.84-6.8 233.84-6.25L233.84-6.25 233.84-1.25Q233.84-0.75 233.49-0.38 233.14 0 232.59 0L232.59 0Z" opacity="1" transform="matrix(1,0,0,1,0,0)" fill="#457b9d" class="undefined-s-1"></path></svg></g></svg></g></svg></g></svg></g></svg></g></svg></g></svg><rect width="395.52" height="29.98400610211045" fill="none" stroke="none" visibility="hidden"></rect></g></svg></g></svg>