<svg xmlns="http://www.w3.org/2000/svg" version="1.1" xmlns:xlink="http://www.w3.org/1999/xlink" xmlns:svgjs="http://svgjs.dev/svgjs" width="128" height="128" viewBox="0 0 128 128"><g transform="matrix(0.8046875,0,0,0.8046875,12.54904536525543,9.558426579849367)"><svg viewBox="0 0 89 95" data-background-color="#ffffff" preserveAspectRatio="xMidYMid meet" height="136" width="128" xmlns="http://www.w3.org/2000/svg" xmlns:xlink="http://www.w3.org/1999/xlink"><defs></defs><g id="tight-bounds" transform="matrix(1,0,0,1,-0.04228374588069528,-0.240389833597348)"><svg viewBox="0 0 89.08466275081012 95.48099999999998" height="95.48099999999998" width="89.08466275081012"><g><svg viewBox="0 0 89.08466275081012 95.48099999999998" height="95.48099999999998" width="89.08466275081012"><g><svg viewBox="0 0 89.08466275081012 95.48099999999998" height="95.48099999999998" width="89.08466275081012"><g><svg viewBox="0 0 89.08466275081012 95.48099999999998" height="95.48099999999998" width="89.08466275081012"><g><svg viewBox="0 0 89.08466275081012 95.48099999999998" height="95.48099999999998" width="89.08466275081012"><g><svg viewBox="0 0 89.08466275081012 95.48099999999998" height="95.48099999999998" width="89.08466275081012"><g><svg xmlns="http://www.w3.org/2000/svg" xmlns:xlink="http://www.w3.org/1999/xlink" version="1.0" x="0" y="0" viewBox="9.0910901 4.8812084 84.260007 90.30993079999999" enable-background="new 0 0 100 100" xml:space="preserve" height="95.48099999999998" width="89.08466275081012" class="icon-icon-0" data-fill-palette-color="accent" id="icon-0"><path d="M66.268 58.43V92.081c0 1.506 1.35 3.11 2.852 3.11h13.698c1.505 0 2.451-1.602 2.452-3.11V36.538c-1.258 2.942-2.741 5.686-4.451 8.214C77.053 50.318 72.157 54.916 66.268 58.43z" fill="#457b9d" data-fill-palette-color="accent"></path><path d="M10.782 92.081c0 1.506 1.264 3.11 2.768 3.11h13.699c1.501 0 2.535-1.602 2.535-3.11V66.923c-8.38-0.093-15.351-1.198-19.002-1.909V92.081z" fill="#457b9d" data-fill-palette-color="accent"></path><path d="M38.905 66.594V92.081c0 1.506 0.925 3.11 2.432 3.11h13.694c1.508 0 2.876-1.604 2.876-3.11V62.447c-3.07 1.165-6.336 2.11-9.778 2.822C45.187 65.877 42.103 66.319 38.905 66.594z" fill="#457b9d" data-fill-palette-color="accent"></path><path d="M54.666 40.262c0.143-0.184 0.283-0.369 0.42-0.553-0.019 0-0.037-0.004-0.055-0.004H41.338c-1.508 0-2.433 1.572-2.433 3.076v8.968c0.552-0.221 1.097-0.447 1.63-0.684C46.353 48.471 51.107 44.837 54.666 40.262z" fill="#457b9d" data-fill-palette-color="accent"></path><path d="M85.134 21.104h0.103 8.114L74.818 4.881l-18.533 16.223h9.963c-0.134 2.969-1.133 12.907-8.341 22.034-4.053 5.132-10.07 10.007-19.002 13.243-5.765 2.089-12.746 3.495-21.196 3.846-1.367 0.057-2.772 0.087-4.217 0.087-0.184 0-0.37-0.002-0.555-0.003-1.253-0.007-2.532-0.033-3.846-0.084 0 0 1.029 0.257 2.848 0.603 3.531 0.67 10.04 1.672 17.79 1.766 0.391 0.005 0.785 0.007 1.181 0.008 2.563 0 5.248-0.103 7.995-0.352 6.248-0.565 12.817-1.884 19.002-4.457 2.896-1.205 5.706-2.685 8.361-4.491C75.373 47.108 82.636 37.07 85.134 21.104z" fill="#457b9d" data-fill-palette-color="accent"></path></svg><g></g></g></svg></g></svg></g></svg></g></svg></g></svg></g></svg><rect width="89.08466275081012" height="95.48099999999998" fill="none" stroke="none" visibility="hidden"></rect></g></svg></g></svg>