<?xml version="1.0" encoding="utf-8"?>
<!-- Generator: Adobe Illustrator 27.0.0, SVG Export Plug-In . SVG Version: 6.00 Build 0)  -->
<svg version="1.1" id="Layer_1" xmlns="http://www.w3.org/2000/svg" xmlns:xlink="http://www.w3.org/1999/xlink" x="0px" y="0px"
	 viewBox="0 0 300 300" style="enable-background:new 0 0 300 300;" xml:space="preserve">
<style type="text/css">
	.st0{fill:#2366CC;}
	.st1{fill:none;stroke:#2366CC;stroke-width:25;stroke-miterlimit:10;}
	.st2{fill:#2366CC;stroke:#2366CC;stroke-width:15;stroke-linecap:round;stroke-miterlimit:10;}
	.st3{stroke:#2366CC;stroke-width:20;stroke-linecap:round;stroke-miterlimit:10;}
	.st4{fill:none;stroke:#FFFFFF;stroke-width:20;stroke-miterlimit:10;}
	.st5{fill:none;stroke:#FFFFFF;stroke-width:22;stroke-miterlimit:10;}
</style>
<path class="st0" d="M149.5,300L149.5,300c-82.84,0-150-67.16-150-150v0c0-82.84,67.16-150,150-150h0c82.84,0,150,67.16,150,150v0
	C299.5,232.84,232.34,300,149.5,300z"/>
<circle class="st1" cx="-1800" cy="180.5" r="78"/>
<path class="st1" d="M-1705.52,283.25c-55.27,52.41-142.56,50.08-194.97-5.19s-50.08-142.56,5.19-194.97
	c55.27-52.41,142.56-50.08,194.97,5.19"/>
<g>
	<path class="st2" d="M-1646.18,316.18h-11.2v-157.5h11.2v31.85c11.9-23.8,32.2-35.7,60.9-35.7c19.6,0,36.05,6.77,49.35,20.3
		c13.3,13.54,19.95,29.98,19.95,49.35v91.7h-11.2v-91.7c0-16.1-5.66-30.1-16.98-42c-11.32-11.9-25.02-17.85-41.12-17.85
		s-30.27,5.95-42.52,17.85c-12.25,11.9-18.38,25.9-18.38,42V316.18z"/>
	<path class="st2" d="M-1417.64,308.48v9.8c-16.57,0-30.68-5.54-42.35-16.62c-11.67-11.08-17.5-25.25-17.5-42.52V95.33h11.2v63.7
		h48.3v9.8h-48.3v90.3c0,14.24,4.72,26.02,14.17,35.35C-1442.66,303.81-1431.17,308.48-1417.64,308.48z"/>
	<path class="st2" d="M-1374.24,295c-16.1-16.68-24.15-36.1-24.15-58.28c0-22.17,8.17-41.35,24.5-57.57
		c16.33-16.21,35.99-24.33,58.97-24.33c22.98,0,42.58,8.11,58.8,24.33c16.21,16.22,24.32,35.47,24.32,57.75
		c0,22.29-7.93,41.71-23.8,58.28c-15.87,16.57-35.12,24.85-57.75,24.85h-3.15C-1338.89,320.03-1358.14,311.69-1374.24,295z
		 M-1242.99,237.6c0-19.71-7.06-36.8-21.18-51.27c-14.12-14.46-30.97-21.7-50.57-21.7c-19.6,0-36.58,7.29-50.93,21.88
		c-14.35,14.58-21.52,31.67-21.52,51.27c0,19.6,7.17,36.58,21.52,50.93c14.35,14.35,31.38,21.52,51.1,21.52
		c19.71,0,36.58-7.17,50.58-21.52C-1249.99,274.35-1242.99,257.32-1242.99,237.6z"/>
	<path class="st2" d="M-1164.24,164.28c-6.07,0-11.43,1.98-16.1,5.95c-4.67,3.97-7,8.87-7,14.7c0,5.83,2.62,11.2,7.88,16.1
		s11.55,9.4,18.9,13.48c7.35,4.08,14.75,8.46,22.23,13.12c7.46,4.67,13.83,10.62,19.08,17.85c5.25,7.24,7.88,15.52,7.88,24.85
		c0,13.77-5.2,25.5-15.58,35.17c-10.39,9.68-22.92,14.52-37.62,14.52c-9.33,0-18.03-2.04-26.08-6.12
		c-8.05-4.08-13.95-9.5-17.67-16.27v-16.8c8.86,19.6,23.1,29.4,42.7,29.4c12.13,0,22.34-3.73,30.62-11.2
		c8.28-7.46,12.42-15.8,12.42-25.02c0-9.21-2.62-16.98-7.88-23.28s-11.61-11.67-19.08-16.1c-7.47-4.43-14.88-8.8-22.22-13.12
		c-7.35-4.32-13.65-9.57-18.9-15.75c-5.25-6.18-7.88-13.42-7.88-21.7c0-8.28,3.33-15.28,9.97-21c6.65-5.71,15.23-8.58,25.73-8.58
		s19.48,4.09,26.95,12.25v14.35C-1143.36,169.88-1152.81,164.28-1164.24,164.28z"/>
	<path class="st2" d="M-1062.74,295c-16.1-16.68-24.15-36.1-24.15-58.28c0-22.17,8.17-41.35,24.5-57.57
		c16.33-16.21,35.99-24.33,58.97-24.33c22.98,0,42.58,8.11,58.8,24.33c16.21,16.22,24.32,35.47,24.32,57.75
		c0,22.29-7.93,41.71-23.8,58.28c-15.87,16.57-35.12,24.85-57.75,24.85h-3.15C-1027.39,320.03-1046.64,311.69-1062.74,295z
		 M-931.49,237.6c0-19.71-7.06-36.8-21.18-51.27c-14.12-14.46-30.97-21.7-50.57-21.7c-19.6,0-36.58,7.29-50.93,21.88
		c-14.35,14.58-21.52,31.67-21.52,51.27c0,19.6,7.17,36.58,21.52,50.93c14.35,14.35,31.38,21.52,51.1,21.52
		c19.71,0,36.58-7.17,50.58-21.52C-938.49,274.35-931.49,257.32-931.49,237.6z"/>
</g>
<path class="st3" d="M-1657.38,193.68"/>
<g>
	<circle class="st4" cx="162.15" cy="148.32" r="49.03"/>
	<path class="st5" d="M221.53,212.91c-34.74,32.94-89.61,31.48-122.55-3.26s-31.48-89.61,3.26-122.55s89.61-31.48,122.55,3.26"/>
</g>
</svg>
